<?xml version="1.0" standalone="no"?>
<!DOCTYPE svg PUBLIC "-//W3C//DTD SVG 20010904//EN"
 "http://www.w3.org/TR/2001/REC-SVG-20010904/DTD/svg10.dtd">
<svg version="1.0" xmlns="http://www.w3.org/2000/svg"
 width="1280.000000pt" height="640.000000pt" viewBox="0 0 1280.000000 640.000000"
 preserveAspectRatio="xMidYMid meet">
<metadata>
Created by potrace 1.15, written by Peter Selinger 2001-2017
</metadata>
<g transform="translate(0.000000,640.000000) scale(0.100000,-0.100000)"
fill="#000000" stroke="none">
<path d="M2890 4903 c-643 -23 -1249 -191 -1746 -484 -145 -86 -218 -167 -266
-295 -21 -57 -22 -73 -26 -516 -2 -289 -7 -458 -13 -458 -5 0 -53 -5 -107 -10
-206 -23 -403 -94 -679 -247 l-52 -29 106 -69 c212 -138 418 -303 487 -393
l34 -42 -70 -68 c-81 -78 -210 -245 -328 -422 -98 -149 -224 -359 -218 -365 2
-3 86 22 186 55 397 130 593 170 827 171 83 0 202 -7 265 -16 156 -20 196 -19
255 9 65 30 112 78 142 143 l24 52 2 612 2 613 30 8 c107 28 420 86 615 113
378 52 679 69 1080 62 726 -14 1197 -84 2510 -376 991 -220 1425 -297 1998
-356 541 -56 1217 -61 1762 -15 433 37 960 117 1346 205 l22 5 4 -433 4 -432
25 -55 c32 -68 79 -116 144 -146 59 -28 99 -29 255 -9 63 9 183 16 265 16 234
-1 430 -41 827 -171 100 -33 184 -58 186 -55 6 6 -120 216 -218 365 -118 177
-247 344 -328 422 l-70 68 34 42 c69 90 275 255 487 393 l106 69 -52 29 c-276
153 -473 224 -679 247 -54 5 -102 10 -107 10 -6 0 -11 161 -13 448 -4 504 -3
499 -81 614 -48 72 -118 129 -197 160 -43 17 -76 21 -150 21 -82 0 -124 -8
-310 -56 -1110 -287 -2267 -328 -3665 -131 -470 66 -755 118 -1788 324 -1402
281 -1771 338 -2407 370 -185 9 -264 10 -460 3z"/>
</g>
</svg>
